<svg width="1600" height="960" viewBox="0 0 1600 960" fill="none" xmlns="http://www.w3.org/2000/svg">
<g opacity="0.3">
<path opacity="0.0571429" d="M-135.842 600.393C-165.408 394.304 -75.8998 -63.3632 518.662 -245.317C1113.22 -427.27 1287.12 -757.388 1299.74 -899.703" stroke="white"/>
<path opacity="0.114286" d="M-137.731 597.255C-145.9 390.295 -9.56872 -57.9232 601.106 -195.109C1211.78 -332.294 1418.96 -647.575 1446.21 -788.068" stroke="white"/>
<path opacity="0.171429" d="M-140.51 593.692C-127.322 387.386 54.5363 -48.095 676.461 -139.572C1298.39 -231.048 1537.06 -529.193 1578.66 -666.831" stroke="white"/>
<path opacity="0.228571" d="M-144.134 589.637C-109.784 385.5 115.974 -34.0711 744.211 -79.2615C1372.45 -124.452 1640.61 -403.305 1696.16 -537.083" stroke="white"/>
<path opacity="0.285714" d="M-148.545 585.032C-93.3868 384.555 174.325 -16.0723 803.904 -14.7652C1433.48 -13.4582 1728.9 -271.026 1797.92 -399.973" stroke="white"/>
<path opacity="0.342857" d="M-153.685 579.823C-78.22 384.463 229.198 5.65353 855.15 53.3017C1481.1 100.95 1801.37 -133.513 1883.26 -256.701" stroke="white"/>
<path opacity="0.4" d="M-159.487 573.959C-64.3649 385.127 280.229 30.8301 897.63 124.298C1515.03 217.767 1857.55 8.04031 1951.63 -108.506" stroke="white"/>
<path opacity="0.457143" d="M-165.879 567.395C-51.8916 386.449 327.085 59.1579 931.094 197.566C1535.1 335.973 1897.13 152.416 2002.64 43.3368" stroke="white"/>
<path opacity="0.514286" d="M-172.786 560.089C-40.8593 388.321 369.467 90.3141 955.363 272.429C1541.26 454.544 1919.92 298.38 2036.01 197.534" stroke="white"/>
<path opacity="0.571429" d="M-180.127 552.008C-31.3158 390.637 407.112 123.958 970.33 348.206C1533.55 572.455 1925.86 444.693 2051.61 352.781" stroke="white"/>
<path opacity="0.628571" d="M-187.821 543.124C-23.2971 393.287 439.794 159.732 975.963 424.213C1512.13 688.694 1915.02 590.119 2049.44 507.771" stroke="white"/>
<path opacity="0.685714" d="M-195.782 533.415C-16.8274 396.157 467.325 197.267 972.3 499.768C1477.27 802.269 1887.62 733.438 2029.67 661.21" stroke="white"/>
<path opacity="0.742857" d="M-203.921 522.862C-11.9188 399.132 489.559 236.176 959.453 574.192C1429.35 912.207 1843.98 873.448 1992.56 811.816" stroke="white"/>
<path opacity="0.8" d="M-212.15 511.457C-8.5715 402.1 506.389 276.073 937.605 646.824C1368.82 1017.58 1784.56 1008.98 1938.53 958.345" stroke="white"/>
</g>
</svg>
