<svg width="28" height="23" viewBox="0 0 28 23" fill="none" xmlns="http://www.w3.org/2000/svg">
<path d="M28 6.95093V18.3497C28.0001 19.5119 27.5554 20.6301 26.7573 21.4749C25.9591 22.3196 24.8679 22.8269 23.7076 22.8927L23.45 22.8997H4.55C3.38781 22.8998 2.26964 22.4552 1.42488 21.657C0.580113 20.8588 0.0727981 19.7677 0.00700016 18.6073L0 18.3497V6.95093L13.5128 14.0293C13.6631 14.1081 13.8303 14.1492 14 14.1492C14.1697 14.1492 14.3369 14.1081 14.4872 14.0293L28 6.95093Z" fill="#E3E4E6" fill-opacity="0.55"/>
<path d="M4.54991 0.5H23.4499C24.5777 0.499864 25.6654 0.918594 26.502 1.67497C27.3385 2.43135 27.8644 3.47147 27.9775 4.5936L13.9999 11.9156L0.0223083 4.5936C0.130841 3.51604 0.620178 2.51252 1.40236 1.76345C2.18454 1.01437 3.20826 0.568862 4.28951 0.507L4.54991 0.5H23.4499H4.54991Z" fill="#E3E4E6" fill-opacity="0.55"/>
</svg>
