<svg width="100" height="14" viewBox="0 0 100 14" fill="none" xmlns="http://www.w3.org/2000/svg">
<g clip-path="url(#clip0_149_244)">
<path fill-rule="evenodd" clip-rule="evenodd" d="M10.2891 0C7.54516 0 5.83065 1.52735 5.14436 4.58206C6.17339 3.05471 7.37379 2.48206 8.74556 2.86368C9.52823 3.08135 10.0879 3.71361 10.7069 4.41361C11.7157 5.55348 12.8835 6.87264 15.4335 6.87264C18.177 6.87264 19.8919 5.34529 20.5778 2.29103C19.5492 3.81839 18.3488 4.39103 16.977 4.00897C16.194 3.79129 15.6343 3.15903 15.0153 2.45948C14.0065 1.31871 12.8391 0 10.2891 0ZM5.14436 6.87264C2.40081 6.87264 0.685887 8.4 0 11.4547C1.02903 9.92735 2.22944 9.35471 3.60081 9.73632C4.38387 9.954 4.94355 10.5863 5.5625 11.2863C6.57137 12.4261 7.73871 13.7453 10.2891 13.7453C13.0327 13.7453 14.7476 12.2184 15.4335 9.16368C14.4044 10.691 13.204 11.2637 11.8323 10.8821C11.0496 10.6639 10.4899 10.0317 9.87097 9.33213C8.8621 8.19226 7.69435 6.87264 5.14436 6.87264Z" fill="#E3E4E6" fill-opacity="0.55"/>
<path fill-rule="evenodd" clip-rule="evenodd" d="M30.8653 5.79195H29.0698V9.66092C29.0698 10.6929 29.6778 10.6766 30.8653 10.612V12.1759C28.4613 12.4984 27.5057 11.7569 27.5057 9.66092V5.79195H26.1734V4.11511H27.5057V1.95008L29.0698 1.43388V4.11511H30.8653V5.79195ZM37.7097 4.11511H39.2734V12.1759H37.7097V11.0153C37.1593 11.8693 36.3049 12.3855 35.1754 12.3855C33.2061 12.3855 31.5698 10.5316 31.5698 8.1453C31.5698 5.74362 33.2061 3.90556 35.1754 3.90556C36.3049 3.90556 37.1593 4.4213 37.7097 5.25995V4.11511ZM35.4218 10.7249C36.725 10.7249 37.7097 9.64466 37.7097 8.1453C37.7097 6.64595 36.725 5.56614 35.4218 5.56614C34.1186 5.56614 33.1339 6.6464 33.1339 8.1453C33.1339 9.64466 34.1186 10.7249 35.4218 10.7249ZM41.8799 2.90614C41.3299 2.90614 40.8811 2.3904 40.8811 1.79382C40.8823 1.49816 40.9882 1.21511 41.1754 1.00664C41.3625 0.798165 41.6159 0.681253 41.8799 0.681496C42.1439 0.681134 42.3973 0.797993 42.5846 1.00648C42.7719 1.21496 42.8778 1.49808 42.879 1.79382C42.879 2.38995 42.4303 2.90614 41.8799 2.90614ZM41.098 12.1759V4.11511H42.6621V12.1759H41.098ZM44.4722 12.1759V0.406464H46.0359V12.1755H44.4722V12.1759ZM56.1871 4.11511H57.8379L55.5645 12.1759H54.0294L52.5234 6.74304L51.0028 12.1759H49.4682L47.1944 4.11511H48.8452L50.25 9.67672L51.7706 4.11511H53.2621L54.7678 9.67672L56.1871 4.11511ZM59.7782 2.90614C59.2278 2.90614 58.779 2.3904 58.779 1.79382C58.7803 1.49808 58.8862 1.21496 59.0735 1.00648C59.2608 0.797993 59.5142 0.681134 59.7782 0.681496C60.0423 0.681134 60.2957 0.797993 60.483 1.00648C60.6703 1.21496 60.7762 1.49808 60.7774 1.79382C60.7774 2.38995 60.3286 2.90614 59.7782 2.90614ZM58.9964 12.1759V4.11511H60.5601V12.1759H58.9964ZM66.1786 3.90556C67.8004 3.90556 68.9589 5.13079 68.9589 7.22672V12.1755H67.3952V7.40375C67.3952 6.17853 66.7581 5.53408 65.7734 5.53408C64.7452 5.53408 63.9343 6.21104 63.9343 7.85537V12.1759H62.3702V4.11511H63.9343V5.14704C64.4121 4.30885 65.194 3.90556 66.1786 3.90556ZM76.373 0.891044H77.9371V12.1755H76.373V11.0149C75.823 11.8693 74.9686 12.385 73.8391 12.385C71.8698 12.385 70.2335 10.5312 70.2335 8.14485C70.2335 5.74317 71.8698 3.90511 73.8391 3.90511C74.9686 3.90511 75.823 4.42085 76.373 5.2595V0.891044ZM74.0851 10.7249C75.3883 10.7249 76.373 9.64466 76.373 8.1453C76.373 6.64595 75.3883 5.56614 74.0851 5.56614C72.7819 5.56614 71.7972 6.6464 71.7972 8.1453C71.7972 9.64466 72.7819 10.7249 74.0851 10.7249ZM83.179 12.3855C80.9924 12.3855 79.3561 10.5316 79.3561 8.1453C79.3561 5.74362 80.9924 3.90556 83.179 3.90556C84.598 3.90556 85.829 4.7275 86.4081 5.98524L85.0613 6.85595C84.7428 6.09814 84.0335 5.61446 83.1645 5.61446C81.8903 5.61446 80.9202 6.69472 80.9202 8.1453C80.9202 9.59633 81.8903 10.6766 83.1645 10.6766C84.0335 10.6766 84.7428 10.1767 85.0903 9.43511L86.4371 10.2896C85.829 11.5631 84.598 12.3855 83.179 12.3855ZM89.0145 6.33975C89.0145 7.80704 92.9101 6.92008 92.9101 9.90298C92.9101 11.5152 91.65 12.3855 90.0863 12.3855C88.6383 12.3855 87.5956 11.6598 87.1323 10.4991L88.479 9.62885C88.7105 10.3541 89.2899 10.7895 90.0863 10.7895C90.7815 10.7895 91.3169 10.5316 91.3169 9.88627C91.3169 8.45195 87.4218 9.25808 87.4218 6.37227C87.4218 4.85666 88.5948 3.90556 90.0718 3.90556C91.2593 3.90556 92.244 4.5184 92.7508 5.5824L91.4331 6.40433C91.1722 5.77569 90.6653 5.4853 90.0718 5.4853C89.5069 5.4853 89.0145 5.75943 89.0145 6.33975ZM95.6903 6.33975C95.6903 7.80704 99.5855 6.92008 99.5855 9.90298C99.5855 11.5152 98.3258 12.3855 96.7617 12.3855C95.3137 12.3855 94.2714 11.6598 93.8077 10.4991L95.1544 9.62885C95.3863 10.3541 95.9653 10.7895 96.7617 10.7895C97.4569 10.7895 97.9928 10.5316 97.9928 9.88627C97.9928 8.45195 94.0976 9.25808 94.0976 6.37227C94.0976 4.85666 95.2702 3.90556 96.7476 3.90556C97.9347 3.90556 98.9194 4.5184 99.4262 5.5824L98.1085 6.40433C97.848 5.77569 97.3411 5.4853 96.7476 5.4853C96.1827 5.4853 95.6903 5.75943 95.6903 6.33975Z" fill="#E3E4E6" fill-opacity="0.55"/>
</g>
<defs>
<clipPath id="clip0_149_244">
<rect width="100" height="14" fill="white"/>
</clipPath>
</defs>
</svg>
