<svg width="34" height="34" viewBox="0 0 34 34" fill="none" xmlns="http://www.w3.org/2000/svg">
<path d="M17.0356 5.73302C17.7993 5.73302 18.4183 6.35208 18.4183 7.11571V15.4118H26.7144C27.4781 15.4118 28.0971 16.0309 28.0971 16.7945C28.0971 17.5582 27.4781 18.1772 26.7144 18.1772H18.4183V26.4734C18.4183 27.237 17.7993 27.856 17.0356 27.856C16.272 27.856 15.6529 27.237 15.6529 26.4734V18.1772H7.35681C6.59317 18.1772 5.97412 17.5582 5.97412 16.7945C5.97412 16.0309 6.59317 15.4118 7.35681 15.4118H15.6529V7.11571C15.6529 6.35208 16.272 5.73302 17.0356 5.73302Z" fill="#E7E7E7"/>
</svg>
