<svg width="59" height="14" viewBox="0 0 59 14" fill="none" xmlns="http://www.w3.org/2000/svg">
<g clip-path="url(#clip0_149_234)">
<path d="M39.2214 0.00567627H49.4982V2.18012H45.4215V13.6196H43.383V2.18012H39.2214V0.00567627Z" fill="#E3E4E6" fill-opacity="0.55"/>
<path d="M22.3199 0.00567627V2.18012H14.0824V5.67814H20.707V7.85258H14.0824V11.4452H22.3199V13.6196H12.0441V2.18012H12.0432V0.00567627H22.3199Z" fill="#E3E4E6" fill-opacity="0.55"/>
<path d="M27.4515 0.0113525H24.7839L34.3386 13.6253H37.0139L32.236 6.823L37.0063 0.0217391L34.3386 0.026465L30.9004 4.92153L27.4515 0.0113525Z" fill="#E3E4E6" fill-opacity="0.55"/>
<path d="M30.1888 9.73586L28.8529 7.83179L24.7762 13.6357H27.4515L30.1888 9.73586Z" fill="#E3E4E6" fill-opacity="0.55"/>
<path fill-rule="evenodd" clip-rule="evenodd" d="M12.1155 13.6196L2.54795 0H0V13.6139H2.03836V2.90997L9.55481 13.6196H12.1155Z" fill="#E3E4E6" fill-opacity="0.55"/>
<path d="M49.9564 13.5364C49.8071 13.5364 49.6801 13.4772 49.5738 13.3586C49.4674 13.24 49.4149 13.0965 49.4162 12.9264C49.4149 12.761 49.4674 12.6191 49.5738 12.5005C49.6801 12.3819 49.8071 12.3226 49.9564 12.3226C50.1 12.3226 50.2256 12.3819 50.3319 12.5005C50.4397 12.6191 50.4935 12.761 50.495 12.9264C50.4935 13.0387 50.4686 13.1417 50.4189 13.2338C50.3679 13.3274 50.303 13.4007 50.2214 13.4538C50.1413 13.5084 50.0529 13.5364 49.9564 13.5364Z" fill="#E3E4E6" fill-opacity="0.55"/>
<path d="M53.4354 7.8013H54.3387V11.7906C54.3374 12.1573 54.2682 12.4709 54.133 12.7345C53.9962 12.9982 53.807 13.1994 53.5639 13.3414C53.3222 13.4818 53.0391 13.5536 52.7173 13.5536C52.423 13.5536 52.1593 13.4928 51.9245 13.3742C51.6897 13.2556 51.5033 13.0778 51.3665 12.8437C51.2283 12.6097 51.1606 12.318 51.1606 11.9685H52.0654C52.0668 12.1214 52.0972 12.254 52.1551 12.3648C52.2131 12.4755 52.2932 12.5598 52.3955 12.6191C52.4989 12.6784 52.6178 12.708 52.7517 12.708C52.8968 12.708 53.0211 12.6737 53.1219 12.6035C53.2227 12.5348 53.3001 12.4319 53.354 12.2946C53.4064 12.1588 53.4341 11.9903 53.4354 11.7906V7.8013Z" fill="#E3E4E6" fill-opacity="0.55"/>
<path d="M58.0553 9.36146C58.0333 9.11964 57.9365 8.93086 57.7681 8.79669C57.5981 8.66095 57.3786 8.59387 57.1092 8.59387C56.9201 8.59387 56.7571 8.62664 56.6218 8.6906C56.4864 8.75612 56.3814 8.84348 56.3095 8.95426C56.2378 9.06503 56.2019 9.19141 56.199 9.33339C56.199 9.45196 56.2239 9.55492 56.2723 9.64074C56.3206 9.7281 56.3855 9.80143 56.4698 9.86072C56.5526 9.92156 56.6451 9.97148 56.7461 10.012C56.8482 10.0526 56.9505 10.0869 57.0526 10.115L57.5235 10.2476C57.7128 10.2976 57.8966 10.3647 58.0719 10.4505C58.2473 10.5347 58.4061 10.6424 58.5456 10.7718C58.6851 10.9013 58.7956 11.0574 58.8771 11.2399C58.9585 11.4224 59 11.6362 59 11.8827C59 12.215 58.9255 12.5067 58.7748 12.7595C58.6243 13.0107 58.4075 13.2072 58.123 13.3492C57.8398 13.4897 57.4973 13.5614 57.0941 13.5614C56.7046 13.5614 56.3648 13.4928 56.0789 13.3555C55.7917 13.2197 55.5678 13.02 55.4063 12.7579C55.2447 12.4958 55.1577 12.176 55.1453 11.8H56.0403C56.0527 11.9966 56.108 12.1604 56.2019 12.293C56.2971 12.4241 56.4214 12.5208 56.5734 12.5863C56.7267 12.6503 56.8979 12.683 57.0872 12.683C57.2847 12.683 57.4587 12.6487 57.6092 12.5816C57.7583 12.5145 57.8757 12.4209 57.96 12.2993C58.0457 12.1791 58.0885 12.0371 58.0899 11.8749C58.0885 11.7267 58.0497 11.6034 57.9752 11.5067C57.8992 11.41 57.7943 11.3288 57.6603 11.2633C57.525 11.1978 57.3675 11.1385 57.188 11.087L56.6162 10.9216C56.2032 10.8015 55.8759 10.619 55.6369 10.374C55.3967 10.1291 55.2778 9.80456 55.2778 9.39735C55.2778 9.06348 55.3579 8.77018 55.5196 8.51899C55.6797 8.26781 55.8994 8.07278 56.177 7.93392C56.456 7.79352 56.7709 7.72485 57.1216 7.72485C57.478 7.72485 57.7901 7.79352 58.0595 7.93392C58.3287 8.07278 58.5402 8.26625 58.6934 8.51274C58.8467 8.75925 58.9268 9.04163 58.931 9.36146H58.0553Z" fill="#E3E4E6" fill-opacity="0.55"/>
</g>
<defs>
<clipPath id="clip0_149_234">
<rect width="59" height="13.5614" fill="white"/>
</clipPath>
</defs>
</svg>
