<svg width="85" height="20" viewBox="0 0 85 20" fill="none" xmlns="http://www.w3.org/2000/svg">
<path fill-rule="evenodd" clip-rule="evenodd" d="M0.198035 13.7279C-0.062307 13.4069 -0.0662401 12.9982 0.187896 12.6741L9.75658 0.475445C10.2888 -0.203041 11.5739 -0.143716 12.0002 0.579012L20.7417 15.3988C21.066 15.9487 20.6927 16.5957 19.9505 16.7697L6.35255 19.9579C5.80545 20.0862 5.21596 19.9143 4.91013 19.5372L0.198035 13.7279ZM10.8606 4.04224C10.9528 3.68338 11.5819 3.63163 11.7677 3.96762L17.7975 14.8721C17.9109 15.0774 17.7697 15.3142 17.4955 15.3781L8.10034 17.57C7.755 17.6506 7.42419 17.4147 7.49515 17.1386L10.8606 4.04224ZM45.8108 15.3003H48.4821V7.64786H45.8108V15.3003ZM45.6971 5.66982C45.6971 4.99018 46.1821 4.65012 47.1512 4.65012C48.1201 4.65012 48.605 4.99018 48.605 5.66982C48.605 5.99392 48.4838 6.24601 48.2416 6.42631C47.9992 6.60662 47.6358 6.69652 47.1512 6.69652C46.1821 6.69652 45.6971 6.35428 45.6971 5.66982ZM82.3464 11.755L81.3128 11.7823C80.5363 11.8007 79.9583 11.9104 79.5788 12.111C79.1991 12.3118 79.0096 12.6174 79.0096 13.0282C79.0096 13.6167 79.4416 13.9111 80.3056 13.9111C80.9244 13.9111 81.4195 13.7721 81.79 13.4935C82.1607 13.2153 82.3464 12.8457 82.3464 12.3846V11.755ZM83.1346 15.3006L82.6179 14.2601H82.5477C82.098 14.7029 81.6353 15.0098 81.1594 15.181C80.6838 15.352 80.0634 15.4374 79.2986 15.4374C78.3582 15.4374 77.6186 15.2276 77.0782 14.8078C76.5384 14.3882 76.2684 13.7903 76.2684 13.0144C76.2684 12.2024 76.6317 11.6035 77.3584 11.2177C78.0858 10.8322 79.1818 10.6188 80.6473 10.5777L82.3464 10.5366V10.2012C82.3464 9.42558 81.8382 9.03761 80.8224 9.03761C80.0399 9.03761 79.1203 9.22226 78.0635 9.59207L77.1791 8.18201C78.306 7.72139 79.5557 7.4906 80.9275 7.4906C82.2412 7.4906 83.2484 7.71438 83.9492 8.16149C84.6496 8.60867 85 9.28878 85 10.2012V15.3006H83.1346ZM68.4687 15.3006H65.7974V10.8309C65.7974 10.2789 65.679 9.86494 65.443 9.58867C65.2062 9.31263 64.8341 9.17442 64.326 9.17442C63.6432 9.17442 63.1468 9.37088 62.8373 9.76313C62.5277 10.1557 62.3732 10.8015 62.3732 11.7003V15.3006H59.7018V7.64808H61.7425L62.1016 8.62698H62.2506C62.5132 8.27577 62.893 8.00076 63.389 7.80231C63.8854 7.60364 64.4547 7.50434 65.097 7.50434C66.5625 7.50434 67.5549 7.87865 68.0747 8.62698H68.311C68.5739 8.27098 68.9607 7.99493 69.4717 7.79869C69.9825 7.60246 70.559 7.50434 71.2012 7.50434C72.3106 7.50434 73.1502 7.72693 73.7191 8.17182C74.2885 8.61679 74.573 9.32983 74.573 10.3106V15.3006H71.893V10.8309C71.893 10.2789 71.7747 9.86494 71.5387 9.58867C71.3018 9.31263 70.9298 9.17442 70.4216 9.17442C69.7679 9.17442 69.279 9.35714 68.9546 9.72208C68.6307 10.0872 68.4687 10.6666 68.4687 11.4605V15.3006ZM56.8399 14.8214C57.5378 14.4108 57.8866 13.8131 57.8866 13.0281C57.8866 12.6496 57.8022 12.3231 57.6327 12.0492C57.4632 11.7754 57.2004 11.5337 56.8445 11.3236C56.4885 11.1139 55.9279 10.8881 55.1627 10.6462C54.3046 10.3769 53.7486 10.1737 53.4944 10.0369C53.2408 9.90008 53.1134 9.73817 53.1134 9.55087C53.1134 9.21783 53.5077 9.05127 54.2959 9.05127C54.7394 9.05127 55.1745 9.10399 55.6007 9.2086C56.0268 9.31373 56.4854 9.4481 56.9759 9.61252L57.7815 8.10678C56.6663 7.7053 55.519 7.50448 54.3395 7.50448C53.1016 7.50448 52.1458 7.69031 51.4716 8.06226C50.7968 8.43421 50.4597 8.96017 50.4597 9.63984C50.4597 10.0369 50.5401 10.3714 50.7009 10.6428C50.8611 10.9143 51.1181 11.155 51.4716 11.3648C51.8244 11.5748 52.378 11.8029 53.131 12.0492C53.6564 12.2227 54.077 12.3745 54.3921 12.5045C54.7076 12.6346 54.9293 12.7511 55.058 12.8536C55.1862 12.9563 55.2506 13.0897 55.2506 13.2541C55.2506 13.692 54.7657 13.911 53.7965 13.911C53.3237 13.911 52.7763 13.8493 52.1546 13.7263C51.5325 13.603 50.9736 13.4503 50.4773 13.2676V14.9926C50.9153 15.1385 51.3853 15.2492 51.8875 15.3247C52.3897 15.3998 52.9964 15.4375 53.709 15.4375C55.0985 15.4375 56.1421 15.2321 56.8399 14.8214ZM44.3938 7.56591C44.1545 7.52486 43.8539 7.50434 43.4917 7.50434C42.8844 7.50434 42.3225 7.63553 41.8061 7.89799C41.289 8.16053 40.8789 8.50612 40.5752 8.93484H40.4441L40.0498 7.64808H38.0267V15.3006H40.698V11.4059C40.698 10.7899 40.9358 10.3106 41.4114 9.96837C41.8877 9.6261 42.5516 9.45497 43.4042 9.45497C43.7138 9.45497 43.9763 9.47793 44.1925 9.52341L44.3938 7.56591ZM30.1644 10.0026H31.0578C31.8928 10.0026 32.5172 9.87372 32.9319 9.61584C33.3466 9.35818 33.5537 8.98261 33.5537 8.4898C33.5537 7.99264 33.3799 7.62527 33.0327 7.38791C32.685 7.15055 32.1408 7.03188 31.3992 7.03188H30.1644V10.0026ZM36.2949 8.41465C36.2949 9.49166 35.8645 10.3153 35.0029 10.8855C34.142 11.4561 32.9173 11.7411 31.3294 11.7411H30.1644V15.3004H27.4495V5.29343H31.5394C33.0927 5.29343 34.2734 5.5547 35.0821 6.07723C35.8908 6.59977 36.2949 7.37905 36.2949 8.41465Z" fill="#E3E4E6" fill-opacity="0.55"/>
</svg>
